<mxfile host="app.diagrams.net" modified="2023-08-16T07:03:32.182Z" agent="Mozilla/5.0 (Macintosh; Intel Mac OS X 10_15_7) AppleWebKit/537.36 (KHTML, like Gecko) Chrome/115.0.0.0 Safari/537.36" etag="YNN-Ad8cKZDTh1GIRapP" version="21.6.7" type="github">
  <diagram name="Страница — 1" id="O-HKoHVE6L-0gY3kg_0p">
    <mxGraphModel dx="1366" dy="759" grid="1" gridSize="10" guides="1" tooltips="1" connect="1" arrows="1" fold="1" page="1" pageScale="1" pageWidth="827" pageHeight="1169" math="0" shadow="0">
      <root>
        <mxCell id="0" />
        <mxCell id="1" parent="0" />
        <mxCell id="4M5gjLJg_07RZgJpLRM7-28" value="" style="edgeStyle=orthogonalEdgeStyle;rounded=0;orthogonalLoop=1;jettySize=auto;html=1;" edge="1" parent="1" source="4M5gjLJg_07RZgJpLRM7-26" target="4M5gjLJg_07RZgJpLRM7-27">
          <mxGeometry relative="1" as="geometry" />
        </mxCell>
        <mxCell id="4M5gjLJg_07RZgJpLRM7-26" value="Получение сообщения из Message Broker" style="rounded=0;whiteSpace=wrap;html=1;" vertex="1" parent="1">
          <mxGeometry x="120" y="360" width="120" height="60" as="geometry" />
        </mxCell>
        <mxCell id="4M5gjLJg_07RZgJpLRM7-30" value="" style="edgeStyle=orthogonalEdgeStyle;rounded=0;orthogonalLoop=1;jettySize=auto;html=1;" edge="1" parent="1" source="4M5gjLJg_07RZgJpLRM7-27" target="4M5gjLJg_07RZgJpLRM7-29">
          <mxGeometry relative="1" as="geometry" />
        </mxCell>
        <mxCell id="4M5gjLJg_07RZgJpLRM7-27" value="Заполнение события данными из полученного сообщения" style="rounded=0;whiteSpace=wrap;html=1;" vertex="1" parent="1">
          <mxGeometry x="280" y="360" width="120" height="60" as="geometry" />
        </mxCell>
        <mxCell id="4M5gjLJg_07RZgJpLRM7-33" style="edgeStyle=orthogonalEdgeStyle;rounded=0;orthogonalLoop=1;jettySize=auto;html=1;entryX=0;entryY=0.5;entryDx=0;entryDy=0;" edge="1" parent="1" source="4M5gjLJg_07RZgJpLRM7-29" target="4M5gjLJg_07RZgJpLRM7-31">
          <mxGeometry relative="1" as="geometry">
            <Array as="points">
              <mxPoint x="545" y="300" />
            </Array>
          </mxGeometry>
        </mxCell>
        <mxCell id="4M5gjLJg_07RZgJpLRM7-36" value="Да" style="edgeLabel;html=1;align=center;verticalAlign=middle;resizable=0;points=[];" vertex="1" connectable="0" parent="4M5gjLJg_07RZgJpLRM7-33">
          <mxGeometry x="0.1517" y="1" relative="1" as="geometry">
            <mxPoint as="offset" />
          </mxGeometry>
        </mxCell>
        <mxCell id="4M5gjLJg_07RZgJpLRM7-35" value="" style="edgeStyle=orthogonalEdgeStyle;rounded=0;orthogonalLoop=1;jettySize=auto;html=1;" edge="1" parent="1" source="4M5gjLJg_07RZgJpLRM7-29" target="4M5gjLJg_07RZgJpLRM7-34">
          <mxGeometry relative="1" as="geometry">
            <Array as="points">
              <mxPoint x="545" y="470" />
            </Array>
          </mxGeometry>
        </mxCell>
        <mxCell id="4M5gjLJg_07RZgJpLRM7-37" value="Нет" style="edgeLabel;html=1;align=center;verticalAlign=middle;resizable=0;points=[];" vertex="1" connectable="0" parent="4M5gjLJg_07RZgJpLRM7-35">
          <mxGeometry x="0.0455" y="-1" relative="1" as="geometry">
            <mxPoint as="offset" />
          </mxGeometry>
        </mxCell>
        <UserObject label="Связанный объект системный?" tooltip="Системные объекты:&#xa;- settings&#xa;- event-log" id="4M5gjLJg_07RZgJpLRM7-29">
          <mxCell style="rhombus;whiteSpace=wrap;html=1;rounded=0;comic=0;" vertex="1" parent="1">
            <mxGeometry x="440" y="320" width="170" height="140" as="geometry" />
          </mxCell>
        </UserObject>
        <mxCell id="4M5gjLJg_07RZgJpLRM7-39" value="" style="edgeStyle=orthogonalEdgeStyle;rounded=0;orthogonalLoop=1;jettySize=auto;html=1;" edge="1" parent="1" source="4M5gjLJg_07RZgJpLRM7-31" target="4M5gjLJg_07RZgJpLRM7-38">
          <mxGeometry relative="1" as="geometry">
            <Array as="points">
              <mxPoint x="900" y="300" />
              <mxPoint x="900" y="390" />
            </Array>
          </mxGeometry>
        </mxCell>
        <mxCell id="4M5gjLJg_07RZgJpLRM7-31" value="Заполнение objectTitle для системного объекта константным значением" style="whiteSpace=wrap;html=1;rounded=0;comic=0;" vertex="1" parent="1">
          <mxGeometry x="680" y="260" width="150" height="80" as="geometry" />
        </mxCell>
        <mxCell id="4M5gjLJg_07RZgJpLRM7-40" style="edgeStyle=orthogonalEdgeStyle;rounded=0;orthogonalLoop=1;jettySize=auto;html=1;entryX=0;entryY=0.5;entryDx=0;entryDy=0;" edge="1" parent="1" source="4M5gjLJg_07RZgJpLRM7-34" target="4M5gjLJg_07RZgJpLRM7-38">
          <mxGeometry relative="1" as="geometry">
            <Array as="points">
              <mxPoint x="900" y="470" />
              <mxPoint x="900" y="390" />
            </Array>
          </mxGeometry>
        </mxCell>
        <UserObject label="Запрос к data-api на получение значения objectTitle" tooltip="GET data-api/get-object-meta/%objectType%" id="4M5gjLJg_07RZgJpLRM7-34">
          <mxCell style="whiteSpace=wrap;html=1;rounded=0;comic=0;" vertex="1" parent="1">
            <mxGeometry x="680" y="440" width="150" height="60" as="geometry" />
          </mxCell>
        </UserObject>
        <mxCell id="4M5gjLJg_07RZgJpLRM7-46" value="" style="edgeStyle=orthogonalEdgeStyle;rounded=0;orthogonalLoop=1;jettySize=auto;html=1;" edge="1" parent="1" source="4M5gjLJg_07RZgJpLRM7-38" target="4M5gjLJg_07RZgJpLRM7-45">
          <mxGeometry relative="1" as="geometry" />
        </mxCell>
        <mxCell id="4M5gjLJg_07RZgJpLRM7-38" value="Сохранение события в БД" style="whiteSpace=wrap;html=1;rounded=0;comic=0;" vertex="1" parent="1">
          <mxGeometry x="920" y="350" width="140" height="80" as="geometry" />
        </mxCell>
        <mxCell id="4M5gjLJg_07RZgJpLRM7-42" value="" style="edgeStyle=orthogonalEdgeStyle;rounded=0;orthogonalLoop=1;jettySize=auto;html=1;" edge="1" parent="1" source="4M5gjLJg_07RZgJpLRM7-41" target="4M5gjLJg_07RZgJpLRM7-26">
          <mxGeometry relative="1" as="geometry" />
        </mxCell>
        <mxCell id="4M5gjLJg_07RZgJpLRM7-41" value="" style="ellipse;fillColor=strokeColor;html=1;" vertex="1" parent="1">
          <mxGeometry x="50" y="375" width="30" height="30" as="geometry" />
        </mxCell>
        <mxCell id="4M5gjLJg_07RZgJpLRM7-45" value="" style="ellipse;html=1;shape=endState;fillColor=strokeColor;" vertex="1" parent="1">
          <mxGeometry x="1120" y="375" width="30" height="30" as="geometry" />
        </mxCell>
      </root>
    </mxGraphModel>
  </diagram>
</mxfile>
